<svg width="33" height="36" viewBox="0 0 33 36" fill="none" xmlns="http://www.w3.org/2000/svg">
<path d="M13.0954 1.38545C11.7125 2.17875 9.47192 3.43303 8.11043 4.19418C3.62933 6.69201 0.0701796 8.686 0.0272982 8.70744C-0.0155831 8.75032 -0.00486277 26.5675 0.0380186 26.5997C0.0594593 26.6104 0.863485 27.0392 1.83904 27.5645C2.81459 28.0898 4.11175 28.7973 4.73353 29.1297L5.85916 29.7407L5.91276 20.6713L5.96637 11.6019L6.50238 11.291C6.80255 11.1195 8.1962 10.3262 9.61128 9.52218C11.0264 8.72888 13.9959 7.05651 16.2043 5.80223C18.4127 4.55867 20.4817 3.40087 20.7926 3.22934C21.0928 3.06854 21.35 2.89701 21.35 2.86485C21.35 2.73621 16.2472 0.045405 15.9363 0.0025236C15.679 -0.0296374 15.1215 0.238371 13.0954 1.38545Z" fill="#9A0607"/>
<path d="M24.4054 5.14826C24.1695 5.28762 23.3762 5.72715 22.6365 6.12381C21.8968 6.53118 21.2643 6.90639 21.2214 6.97071C21.1785 7.03504 21.1357 7.54961 21.1357 8.11779V9.15766L19.5598 10.0475C18.6807 10.5406 17.5443 11.1838 17.0083 11.484C16.483 11.7841 14.9715 12.6311 13.6636 13.3708L11.2729 14.7001V17.7875C11.2729 19.4921 11.3051 20.8536 11.3587 20.8321C11.4016 20.8107 11.7232 20.6177 12.077 20.414C12.6988 20.0495 15.6468 18.3879 19.8492 16.0187L21.8325 14.9038L21.8646 17.6911C21.8754 19.2348 21.8539 20.4998 21.811 20.5105C21.7574 20.5319 20.9749 20.9715 20.0636 21.4861C19.1524 22.0113 17.2656 23.0727 15.8827 23.8552C14.4998 24.6378 12.8917 25.5491 12.3128 25.8814L11.2729 26.4817L11.2944 29.3655L11.3266 32.2493L14.0495 33.7287C16.3758 35.0044 16.8046 35.1974 16.9976 35.1009C17.1263 35.0366 18.3591 34.3505 19.742 33.5572C21.1249 32.7746 24.5018 30.8771 27.2463 29.3441L32.2312 26.5568V17.6374V8.72885L28.597 6.80991C26.603 5.75932 24.9414 4.89097 24.8985 4.89097C24.8663 4.90169 24.6412 5.00889 24.4054 5.14826Z" fill="#9A0607"/>
</svg>
